<svg xmlns="http://www.w3.org/2000/svg" width="112" height="41" fill="none"><path fill="#05152E" d="M55.12 30.576h1.18c3.834 0 6.275-2.414 6.275-6.088V10.596h-3.406v14c0 1.716-1.127 2.815-2.87 2.815h-1.18v3.165ZM72.72 30.898c4.21 0 7.589-3.192 7.589-7.563 0-4.372-3.352-7.536-7.59-7.536-4.264 0-7.59 3.165-7.59 7.536 0 4.371 3.353 7.563 7.59 7.563Zm0-2.977c-2.468 0-4.238-1.904-4.238-4.56 0-2.654 1.77-4.585 4.237-4.585 2.44 0 4.238 1.93 4.238 4.586 0 2.655-1.797 4.559-4.238 4.559ZM90.422 15.799c-1.958 0-3.594.697-4.613 1.904v-7.107h-3.218v19.98h3.03v-1.717c1.046 1.314 2.79 2.039 4.774 2.039 4.13 0 7.322-3.272 7.322-7.536 0-4.291-3.219-7.563-7.295-7.563Zm-.349 12.122c-2.494 0-4.264-1.877-4.264-4.56 0-2.654 1.77-4.585 4.264-4.585 2.468 0 4.291 1.93 4.291 4.586 0 2.655-1.823 4.559-4.29 4.559ZM105.478 30.898c3.299 0 5.578-1.77 5.578-4.372 0-2.011-1.341-3.46-3.835-4.157l-2.574-.724c-.832-.241-1.744-.697-1.744-1.609s.832-1.528 2.173-1.528c1.636 0 2.923.83 3.459 2.199l2.521-1.18c-.885-2.307-3.138-3.728-5.98-3.728-3.192 0-5.364 1.77-5.364 4.371 0 1.958 1.261 3.433 3.781 4.13l2.468.644c.885.241 1.904.67 1.904 1.663 0 .992-.939 1.662-2.387 1.662-1.716 0-3.138-.911-3.889-2.628l-2.494 1.207c.912 2.52 3.379 4.05 6.383 4.05Z"/><path stroke="#153CF5" stroke-linecap="round" stroke-linejoin="round" stroke-width="2.2" d="m8.008 5.5 9.706 3.687a2.702 2.702 0 0 1 1.7 3.062l-.57 2.824a2.701 2.701 0 0 1-1.982 2.09l-3.744.936-2.086 5.195a5.387 5.387 0 0 1-2.019 2.49L5.45 28.097M29.748 6.718l-1.76 2.368a5.4 5.4 0 0 0-.786 4.93l.466 1.38"/><path stroke="#153CF5" stroke-linecap="round" stroke-linejoin="round" stroke-width="2.2" d="M15.511 34.086A16.207 16.207 0 0 1 6.74 6.65a16.21 16.21 0 0 1 27.448 8.73"/><path stroke="#153CF5" stroke-linecap="round" stroke-linejoin="round" stroke-width="2.2" d="M39.955 24.31H22.041c-.76 0-1.378.617-1.378 1.379V38.09c0 .761.617 1.378 1.378 1.378h17.914c.761 0 1.378-.617 1.378-1.378V25.688c0-.76-.617-1.377-1.378-1.377ZM24.797 29.133H37.2M24.797 34.645H37.2"/><path stroke="#153CF5" stroke-linecap="round" stroke-linejoin="round" stroke-width="2.2" d="M34.069 21.118a1.377 1.377 0 0 0-1.308-.941h-3.526a1.378 1.378 0 0 0-1.307.941l-1.064 3.193h8.268l-1.063-3.193ZM23.42 24.31v-1.378M38.577 24.31v-1.378"/></svg>